<svg width="81" height="81" viewBox="0 0 81 81" fill="none" xmlns="http://www.w3.org/2000/svg">
<g clip-path="url(#clip0_11:166)">
<path d="M2.5191 54.5869C8.24147 70.0092 23.0865 81 40.5 81C57.9136 81 72.7586 70.0092 78.481 54.5869L40.5 51.0653L2.5191 54.5869Z" fill="#FFDA44"/>
<path d="M40.5 0C23.0865 0 8.24147 10.9907 2.5191 26.4131L40.5 29.9347L78.481 26.413C72.7586 10.9907 57.9136 0 40.5 0Z" fill="black"/>
<path d="M2.51907 26.4131C0.891158 30.8006 0 35.5461 0 40.5C0 45.454 0.891158 50.1995 2.51907 54.5869H78.4811C80.109 50.1995 81 45.454 81 40.5C81 35.5461 80.109 30.8006 78.4809 26.4131H2.51907Z" fill="#D80027"/>
</g>
<defs>
<clipPath id="clip0_11:166">
<path d="M0 40.5C0 18.1325 18.1325 0 40.5 0C62.8675 0 81 18.1325 81 40.5C81 62.8675 62.8675 81 40.5 81C18.1325 81 0 62.8675 0 40.5Z" fill="white"/>
</clipPath>
</defs>
</svg>
