<svg width="81" height="81" viewBox="0 0 81 81" fill="none" xmlns="http://www.w3.org/2000/svg">
<path d="M40.5 81C62.8675 81 81 62.8675 81 40.5C81 18.1325 62.8675 0 40.5 0C18.1325 0 0 18.1325 0 40.5C0 62.8675 18.1325 81 40.5 81Z" fill="#F0F0F0"/>
<path d="M8.37212 15.8428C5.19081 19.9818 2.79198 24.7525 1.3952 29.935H22.4644L8.37212 15.8428Z" fill="#0052B4"/>
<path d="M79.6048 29.9351C78.208 24.7526 75.809 19.982 72.6279 15.843L58.5359 29.9351H79.6048Z" fill="#0052B4"/>
<path d="M1.3952 51.0654C2.79214 56.2478 5.19097 61.0185 8.37212 65.1574L22.4639 51.0654H1.3952Z" fill="#0052B4"/>
<path d="M65.1572 8.37228C61.0182 5.19097 56.2477 2.79214 51.0651 1.3952V22.4642L65.1572 8.37228Z" fill="#0052B4"/>
<path d="M15.8428 72.6277C19.9818 75.809 24.7525 78.2079 29.9349 79.6048V58.5359L15.8428 72.6277Z" fill="#0052B4"/>
<path d="M29.9347 1.3952C24.7523 2.79214 19.9817 5.19097 15.8428 8.37212L29.9347 22.4641V1.3952Z" fill="#0052B4"/>
<path d="M51.0653 79.6048C56.2477 78.2079 61.0183 75.809 65.1573 72.6279L51.0653 58.5359V79.6048Z" fill="#0052B4"/>
<path d="M58.5359 51.0654L72.6279 65.1575C75.809 61.0186 78.208 56.2478 79.6048 51.0654H58.5359Z" fill="#0052B4"/>
<path d="M80.6572 35.2174H45.7829H45.7827V0.342826C44.0534 0.117703 42.2904 0 40.5 0C38.7093 0 36.9466 0.117703 35.2174 0.342826V35.2171V35.2173H0.342826C0.117703 36.9466 0 38.7096 0 40.5C0 42.2907 0.117703 44.0534 0.342826 45.7826H35.2171H35.2173V80.6572C36.9466 80.8823 38.7093 81 40.5 81C42.2904 81 44.0534 80.8825 45.7826 80.6572V45.7829V45.7827H80.6572C80.8823 44.0534 81 42.2907 81 40.5C81 38.7096 80.8823 36.9466 80.6572 35.2174Z" fill="#D80027"/>
<path d="M51.0652 51.0655L69.1377 69.138C69.9689 68.3071 70.7619 67.4384 71.5184 66.5379L56.0458 51.0653H51.0652V51.0655Z" fill="#D80027"/>
<path d="M29.9347 51.0654H29.9344L11.8621 69.1378C12.6929 69.969 13.5616 70.7619 14.4621 71.5184L29.9347 56.0455V51.0654Z" fill="#D80027"/>
<path d="M29.9347 29.935V29.9347L11.8622 11.8621C11.031 12.6929 10.2381 13.5616 9.48157 14.4621L24.9543 29.9349H29.9347V29.935Z" fill="#D80027"/>
<path d="M51.0652 29.935L69.1379 11.8622C68.307 11.031 67.4383 10.2381 66.5378 9.48175L51.0652 24.9545V29.935Z" fill="#D80027"/>
</svg>
