<svg width="81" height="81" viewBox="0 0 81 81" fill="none" xmlns="http://www.w3.org/2000/svg">
<g clip-path="url(#clip0_11:165)">
<path d="M40.5 81C62.8675 81 81 62.8675 81 40.5C81 18.1325 62.8675 0 40.5 0C18.1325 0 0 18.1325 0 40.5C0 62.8675 18.1325 81 40.5 81Z" fill="#F0F0F0"/>
<path d="M78.4809 54.5869C80.109 50.1995 81 45.454 81 40.5C81 35.5461 80.109 30.8006 78.4809 26.4131H2.51907C0.891158 30.8006 0 35.5461 0 40.5C0 45.454 0.891158 50.1995 2.51907 54.5869L40.5 58.1087L78.4809 54.5869Z" fill="#0052B4"/>
<path d="M40.5 81C57.9135 81 72.7585 70.0093 78.4809 54.5869H2.51904C8.24141 70.0093 23.0864 81 40.5 81Z" fill="#D80027"/>
</g>
<defs>
<clipPath id="clip0_11:165">
<path d="M0 40.5C0 18.1325 18.1325 0 40.5 0C62.8675 0 81 18.1325 81 40.5C81 62.8675 62.8675 81 40.5 81C18.1325 81 0 62.8675 0 40.5Z" fill="white"/>
</clipPath>
</defs>
</svg>
